<svg xmlns="http://www.w3.org/2000/svg" xmlns:cc="http://creativecommons.org/ns#" xmlns:dc="http://purl.org/dc/elements/1.1/" xmlns:rdf="http://www.w3.org/1999/02/22-rdf-syntax-ns#" version="1.1" viewBox="0 0 210 297">
  <g transform="translate(11.339 -117.17)">
    <path fill="#666" d="m-7.5607 119.35v52.917h52.917v-52.917zm23.529 9.8995c5.8687 0 9.3597 3.0004 10.473 9.0012l2.8022-8.2934h4.6422l-5.8027 17.181 1.1322 6.199c0.16984 0.92465 0.58507 1.7738 1.2455 2.5475 0.77369 0.90578 1.4625 1.3586 2.0663 1.3586h2.4908v4.4158h-3.1135c-1.7738 0-3.4533-0.79262-5.0385-2.3777-0.7737-0.79257-1.3209-2.0192-1.6417-3.6797-0.86805 2.0946-2.189 3.9628-3.9629 5.6046-0.8303 0.77369-2.5947 1.1605-5.2931 1.1605-4.4345 0-7.7273-1.4341-9.8786-4.3024-2.2078-2.9626-3.3118-7.0386-3.3118-12.228 0-5.5479 1.1983-9.624 3.5948-12.228 2.6607-2.906 5.8592-4.359 9.5956-4.359zm0 4.4158c-2.5286 0-4.3684 1.0379-5.5195 3.1136-1.453 2.6041-2.1795 5.6234-2.1795 9.0578 0 4.1515 0.70763 7.2179 2.1229 9.1993 1.4341 2.0191 3.2928 3.0287 5.5761 3.0287 2.5286 0 4.4723-2.0098 5.8309-6.0292l1.7267-5.1232-1.2455-6.5386c-0.84917-4.4723-2.9532-6.7084-6.3122-6.7084z"/>
    <text x="57.788521" y="159.36481" fill="#999999" stroke-width=".96822" font-family="'Share Tech'" font-size="38.729px" letter-spacing="0px" style="font-feature-settings:normal;font-variant-caps:normal;font-variant-ligatures:normal;font-variant-numeric:normal;line-height:1.25" word-spacing="0px" xml:space="preserve">
      <tspan x="57.788521" y="159.36481" fill="#999999" stroke-width=".96822" font-family="'Share Tech'" font-size="38.729px" style="font-feature-settings:normal;font-variant-caps:normal;font-variant-ligatures:normal;font-variant-numeric:normal"> FS ^lpha</tspan>
    </text>
  </g>
</svg>
